<svg version="1.1" id="Layer_1" xmlns="http://www.w3.org/2000/svg" xmlns:xlink="http://www.w3.org/1999/xlink" x="0px" y="0px"
	 width="100%" viewBox="0 0 923 649" enable-background="new 0 0 923 649" xml:space="preserve">
<path fill="none" opacity="1.000000" stroke="none" 
	d="
M924.000000,419.000000 
	C924.000000,495.938782 924.000000,572.877563 924.000000,650.000000 
	C819.977478,650.000000 715.954773,650.000000 611.462097,649.619141 
	C607.267456,641.004028 603.651611,632.718445 599.796875,624.545654 
	C590.238953,604.281311 580.573730,584.067505 570.948364,563.834961 
	C557.854248,536.311035 544.756470,508.788757 531.661377,481.265259 
	C522.106323,461.182251 512.548462,441.100616 503.000092,421.014465 
	C489.914398,393.487305 476.835480,365.956909 463.755493,338.427063 
	C454.140503,318.190125 444.531982,297.950104 434.914215,277.714478 
	C425.225189,257.329041 415.529541,236.946777 405.834473,216.564224 
	C396.210419,196.330887 386.577637,176.101685 376.959137,155.865692 
	C367.269958,135.480957 357.647583,115.064293 347.898071,94.708473 
	C335.723541,69.289421 323.390106,43.946316 311.263031,18.504755 
	C308.548462,12.809768 306.405914,6.842114 304.000000,1.000000 
	C510.579437,1.000000 717.158875,1.000000 924.000000,1.000000 
	C924.000000,135.355865 924.000000,269.711884 923.645386,404.515411 
	C918.856323,400.144775 914.412659,395.335205 909.989441,390.506897 
	C895.445557,374.631500 880.917358,358.741852 866.364929,342.874329 
	C861.882629,337.986969 857.042053,333.395721 852.881409,328.251617 
	C837.214478,308.881531 816.639465,299.278625 792.156372,299.131012 
	C727.826721,298.743134 663.493225,299.000031 599.161255,299.000061 
	C597.244568,299.000061 595.327820,299.000061 592.641418,299.000061 
	C602.513855,317.144653 611.955261,334.439545 621.341492,351.764313 
	C630.601990,368.857117 639.850037,385.956940 649.000488,403.108704 
	C650.900574,406.670380 653.291870,408.123871 657.557007,408.108307 
	C704.722046,407.936035 751.888000,408.000031 799.053650,408.000092 
	C800.950317,408.000122 802.847046,408.000092 805.195557,408.000092 
	C798.562439,432.732574 787.728821,454.351959 771.442383,472.907654 
	C753.997009,492.783722 732.536560,507.216797 707.272583,515.126465 
	C694.501831,519.124695 681.195374,521.660950 667.966797,523.877441 
	C654.606934,526.115906 641.080688,527.044128 627.463074,525.135315 
	C622.198486,524.397339 616.743835,525.014832 611.263977,525.014832 
	C611.353271,525.252563 611.532349,525.858765 611.799927,526.423096 
	C621.686523,547.272583 631.551025,568.132629 641.484741,588.959717 
	C649.504944,605.774963 657.770386,622.476318 665.522888,639.413147 
	C666.851135,642.315063 668.171326,643.383484 670.934998,642.976013 
	C679.380859,641.730652 687.839172,640.538391 696.243958,639.050598 
	C733.060852,632.533508 766.795105,618.115906 798.168701,598.165222 
	C820.910217,583.703735 840.531372,565.546143 858.337036,545.301575 
	C872.358582,529.359436 883.875122,511.776642 893.863342,493.188141 
	C906.054504,470.499847 915.507812,446.695007 921.154724,421.466278 
	C921.375183,420.481232 923.019287,419.814850 924.000000,419.000000 
M441.904999,167.666367 
	C448.249054,181.175247 454.593140,194.684128 461.164673,208.677414 
	C462.681030,207.472946 463.492523,206.944473 464.165283,206.276321 
	C472.385986,198.111572 480.045898,189.278748 488.906952,181.884232 
	C506.166168,167.481583 525.432922,156.240952 546.381165,147.811996 
	C572.646729,137.243546 600.003296,131.752029 628.109253,131.286346 
	C643.686829,131.028259 659.453247,132.786316 674.884094,135.222214 
	C698.553101,138.958603 720.247009,148.590302 740.554382,161.141983 
	C755.017212,170.081253 768.651855,180.191864 780.779785,192.215195 
	C781.996216,193.421188 783.643860,194.192261 785.053833,195.139954 
	C795.600281,179.591812 805.894714,164.522827 816.074707,149.376877 
	C826.334045,134.112885 836.479675,118.772484 846.709839,103.413414 
	C844.636414,100.930557 842.938232,98.149490 840.562195,96.190636 
	C833.132080,90.064903 825.442688,84.253853 817.859802,78.313110 
	C800.823547,64.966232 782.455872,53.825794 762.729919,44.911469 
	C741.476379,35.306801 719.983521,26.500977 697.063782,21.438354 
	C677.522339,17.121954 657.745667,14.519747 637.848694,14.247783 
	C621.532654,14.024765 605.168884,15.756789 588.859070,17.039324 
	C571.266357,18.422737 554.223206,22.730242 537.388123,27.852489 
	C515.591187,34.484455 494.778137,43.380924 474.871246,54.515636 
	C452.620789,66.961220 432.333038,82.026985 413.410645,99.033142 
	C411.242401,100.981796 410.767883,102.711052 412.095795,105.461288 
	C421.983917,125.940033 431.725708,146.489426 441.904999,167.666367 
z"/>
<path fill="none" opacity="1.000000" stroke="none" 
	d="
M1.000000,643.000000 
	C1.000000,429.098663 1.000000,215.197327 1.000000,1.000000 
	C100.688484,1.000000 200.377258,1.000000 300.553345,1.245264 
	C301.040649,1.490527 301.166656,1.966339 301.001678,2.297054 
	C300.254608,3.974200 299.709839,5.338200 299.084869,6.664424 
	C290.244965,25.423504 281.446686,44.202446 272.532501,62.926212 
	C261.774902,85.521957 250.904724,108.064117 240.133041,130.653214 
	C239.512329,131.954895 239.338989,133.469940 238.741196,134.993744 
	C238.669266,135.439484 238.813614,135.777161 238.994980,136.473557 
	C242.466141,144.130524 245.878052,151.439346 249.338654,158.725021 
	C258.881653,178.816071 268.444824,198.897522 278.000397,218.982574 
	C291.167236,246.658112 304.334595,274.333374 317.501404,302.008942 
	C326.985962,321.944702 336.474884,341.878387 345.952972,361.817230 
	C359.110535,389.496490 372.260925,417.179199 385.412140,444.861542 
	C394.602356,464.206299 403.784698,483.554840 412.977936,502.898163 
	C426.133575,530.578735 439.264862,558.270935 452.466492,585.929626 
	C460.916046,603.632141 469.530121,621.256348 477.934937,638.979919 
	C479.605865,642.503479 480.660919,646.319092 482.000000,650.000000 
	C462.644653,650.000000 443.289307,650.000000 423.463013,649.619141 
	C422.597290,647.995300 422.338562,646.688049 421.786865,645.519226 
	C415.527588,632.257935 409.225006,619.016968 402.930878,605.772156 
	C393.241516,585.382568 383.553741,564.992249 373.857666,544.605835 
	C364.232391,524.368408 354.594818,504.136780 344.967773,483.900177 
	C331.871643,456.371338 318.782349,428.839172 305.686371,401.310242 
	C296.130585,381.222992 286.592133,361.127441 277.003662,341.055786 
	C264.995667,315.919312 252.927673,290.811462 240.921066,265.674347 
	C236.875854,257.205231 232.981674,248.664032 228.942825,240.191849 
	C222.393005,226.452469 215.780777,212.742813 208.779236,198.154495 
	C207.231125,200.933823 206.014999,202.847198 205.054871,204.881424 
	C191.344315,233.929779 177.676483,262.998291 163.980255,292.053436 
	C158.008270,304.722412 151.908752,317.332642 146.105881,330.078247 
	C145.348099,331.742645 145.356430,334.364868 146.127136,336.024658 
	C157.367340,360.230957 168.749496,384.371826 180.199341,408.480103 
	C188.403168,425.753723 196.783569,442.943420 205.011337,460.205750 
	C205.945953,462.166626 206.402390,464.355438 207.263336,467.000000 
	C204.135284,467.000000 201.819672,466.973145 199.504852,467.004150 
	C175.565842,467.324738 151.560760,466.658020 127.705338,468.242523 
	C99.945290,470.086395 79.393471,484.538483 66.924202,509.494293 
	C56.245365,530.866760 46.206734,552.560364 35.972752,574.153503 
	C25.956472,595.287354 16.103024,616.498535 6.018075,637.599304 
	C4.991313,639.747620 5.287832,643.672852 1.000000,643.000000 
z"/>
<path fill="#00A05F" opacity="1.000000" stroke="none" 
	d="
M238.957458,134.885696 
	C239.338989,133.469940 239.512329,131.954895 240.133041,130.653214 
	C250.904724,108.064117 261.774902,85.521957 272.532501,62.926212 
	C281.446686,44.202446 290.244965,25.423504 299.084869,6.664424 
	C299.709839,5.338200 300.254608,3.974200 301.145142,2.139959 
	C301.641846,1.439931 301.824005,1.222548 302.000000,1.000000 
	C302.444458,1.000000 302.888885,1.000000 303.666687,1.000000 
	C306.405914,6.842114 308.548462,12.809768 311.263031,18.504755 
	C323.390106,43.946316 335.723541,69.289421 347.898071,94.708473 
	C357.647583,115.064293 367.269958,135.480957 376.959137,155.865692 
	C386.577637,176.101685 396.210419,196.330887 405.834473,216.564224 
	C415.529541,236.946777 425.225189,257.329041 434.914215,277.714478 
	C444.531982,297.950104 454.140503,318.190125 463.755493,338.427063 
	C476.835480,365.956909 489.914398,393.487305 503.000092,421.014465 
	C512.548462,441.100616 522.106323,461.182251 531.661377,481.265259 
	C544.756470,508.788757 557.854248,536.311035 570.948364,563.834961 
	C580.573730,584.067505 590.238953,604.281311 599.796875,624.545654 
	C603.651611,632.718445 607.267456,641.004028 610.996033,649.619141 
	C568.312439,650.000000 525.624878,650.000000 482.468658,650.000000 
	C480.660919,646.319092 479.605865,642.503479 477.934937,638.979919 
	C469.530121,621.256348 460.916046,603.632141 452.466492,585.929626 
	C439.264862,558.270935 426.133575,530.578735 412.977936,502.898163 
	C403.784698,483.554840 394.602356,464.206299 385.412140,444.861542 
	C372.260925,417.179199 359.110535,389.496490 345.952972,361.817230 
	C336.474884,341.878387 326.985962,321.944702 317.501404,302.008942 
	C304.334595,274.333374 291.167236,246.658112 278.000397,218.982574 
	C268.444824,198.897522 258.881653,178.816071 249.338654,158.725021 
	C245.878052,151.439346 242.466141,144.130524 238.996613,136.166260 
	C238.959991,135.295410 238.958740,135.090561 238.957458,134.885696 
z"/>
<path fill="#00A05F" opacity="1.000000" stroke="none" 
	d="
M1.000000,643.497925 
	C5.287832,643.672852 4.991313,639.747620 6.018075,637.599304 
	C16.103024,616.498535 25.956472,595.287354 35.972752,574.153503 
	C46.206734,552.560364 56.245365,530.866760 66.924202,509.494293 
	C79.393471,484.538483 99.945290,470.086395 127.705338,468.242523 
	C151.560760,466.658020 175.565842,467.324738 199.504852,467.004150 
	C201.819672,466.973145 204.135284,467.000000 207.263336,467.000000 
	C206.402390,464.355438 205.945953,462.166626 205.011337,460.205750 
	C196.783569,442.943420 188.403168,425.753723 180.199341,408.480103 
	C168.749496,384.371826 157.367340,360.230957 146.127136,336.024658 
	C145.356430,334.364868 145.348099,331.742645 146.105881,330.078247 
	C151.908752,317.332642 158.008270,304.722412 163.980255,292.053436 
	C177.676483,262.998291 191.344315,233.929779 205.054871,204.881424 
	C206.014999,202.847198 207.231125,200.933823 208.779236,198.154495 
	C215.780777,212.742813 222.393005,226.452469 228.942825,240.191849 
	C232.981674,248.664032 236.875854,257.205231 240.921066,265.674347 
	C252.927673,290.811462 264.995667,315.919312 277.003662,341.055786 
	C286.592133,361.127441 296.130585,381.222992 305.686371,401.310242 
	C318.782349,428.839172 331.871643,456.371338 344.967773,483.900177 
	C354.594818,504.136780 364.232391,524.368408 373.857666,544.605835 
	C383.553741,564.992249 393.241516,585.382568 402.930878,605.772156 
	C409.225006,619.016968 415.527588,632.257935 421.786865,645.519226 
	C422.338562,646.688049 422.597290,647.995300 422.996033,649.619141 
	C380.312439,650.000000 337.624878,650.000000 294.464478,649.611572 
	C293.266785,647.245789 292.694580,645.195862 291.793060,643.302673 
	C284.247650,627.458130 276.568695,611.676880 269.073425,595.808777 
	C260.656433,577.989319 252.441574,560.074463 244.042419,542.246521 
	C234.325729,521.621948 224.531235,501.033844 214.669662,480.478333 
	C213.976166,479.032837 212.450195,477.986725 211.011871,476.431030 
	C209.830231,478.559235 208.956268,479.941498 208.263718,481.409332 
	C197.577789,504.056885 186.952438,526.733093 176.238251,549.367249 
	C163.051834,577.224060 149.771072,605.036255 136.590759,632.895935 
	C133.924011,638.532715 131.523331,644.295349 129.000000,650.000000 
	C86.333328,650.000000 43.666664,650.000000 1.000000,650.000000 
	C1.000000,647.981079 1.000000,645.988464 1.000000,643.497925 
z"/>
<path fill="#00A05F" opacity="1.000000" stroke="none" 
	d="
M924.000000,418.535339 
	C923.019287,419.814850 921.375183,420.481232 921.154724,421.466278 
	C915.507812,446.695007 906.054504,470.499847 893.863342,493.188141 
	C883.875122,511.776642 872.358582,529.359436 858.337036,545.301575 
	C840.531372,565.546143 820.910217,583.703735 798.168701,598.165222 
	C766.795105,618.115906 733.060852,632.533508 696.243958,639.050598 
	C687.839172,640.538391 679.380859,641.730652 670.934998,642.976013 
	C668.171326,643.383484 666.851135,642.315063 665.522888,639.413147 
	C657.770386,622.476318 649.504944,605.774963 641.484741,588.959717 
	C631.551025,568.132629 621.686523,547.272583 611.799927,526.423096 
	C611.532349,525.858765 611.353271,525.252563 611.263977,525.014832 
	C616.743835,525.014832 622.198486,524.397339 627.463074,525.135315 
	C641.080688,527.044128 654.606934,526.115906 667.966797,523.877441 
	C681.195374,521.660950 694.501831,519.124695 707.272583,515.126465 
	C732.536560,507.216797 753.997009,492.783722 771.442383,472.907654 
	C787.728821,454.351959 798.562439,432.732574 805.195557,408.000092 
	C802.847046,408.000092 800.950317,408.000122 799.053650,408.000092 
	C751.888000,408.000031 704.722046,407.936035 657.557007,408.108307 
	C653.291870,408.123871 650.900574,406.670380 649.000488,403.108704 
	C639.850037,385.956940 630.601990,368.857117 621.341492,351.764313 
	C611.955261,334.439545 602.513855,317.144653 592.641418,299.000061 
	C595.327820,299.000061 597.244568,299.000061 599.161255,299.000061 
	C663.493225,299.000031 727.826721,298.743134 792.156372,299.131012 
	C816.639465,299.278625 837.214478,308.881531 852.881409,328.251617 
	C857.042053,333.395721 861.882629,337.986969 866.364929,342.874329 
	C880.917358,358.741852 895.445557,374.631500 909.989441,390.506897 
	C914.412659,395.335205 918.856323,400.144775 923.645386,404.981445 
	C924.000000,409.356903 924.000000,413.713806 924.000000,418.535339 
z"/>
<path fill="none" opacity="1.000000" stroke="none" 
	d="
M129.468658,650.000000 
	C131.523331,644.295349 133.924011,638.532715 136.590759,632.895935 
	C149.771072,605.036255 163.051834,577.224060 176.238251,549.367249 
	C186.952438,526.733093 197.577789,504.056885 208.263718,481.409332 
	C208.956268,479.941498 209.830231,478.559235 211.011871,476.431030 
	C212.450195,477.986725 213.976166,479.032837 214.669662,480.478333 
	C224.531235,501.033844 234.325729,521.621948 244.042419,542.246521 
	C252.441574,560.074463 260.656433,577.989319 269.073425,595.808777 
	C276.568695,611.676880 284.247650,627.458130 291.793060,643.302673 
	C292.694580,645.195862 293.266785,647.245789 293.995789,649.611572 
	C239.312439,650.000000 184.624878,650.000000 129.468658,650.000000 
z"/>
<path fill="#00A05F" opacity="1.000000" stroke="none" 
	d="
M301.750000,1.000000 
	C301.824005,1.222548 301.641846,1.439931 301.310120,1.809244 
	C301.166656,1.966339 301.040649,1.490527 301.020325,1.245264 
	C301.000000,1.000000 301.500000,1.000000 301.750000,1.000000 
z"/>
<path fill="#00A05F" opacity="1.000000" stroke="none" 
	d="
M441.709198,167.341522 
	C431.725708,146.489426 421.983917,125.940033 412.095795,105.461288 
	C410.767883,102.711052 411.242401,100.981796 413.410645,99.033142 
	C432.333038,82.026985 452.620789,66.961220 474.871246,54.515636 
	C494.778137,43.380924 515.591187,34.484455 537.388123,27.852489 
	C554.223206,22.730242 571.266357,18.422737 588.859070,17.039324 
	C605.168884,15.756789 621.532654,14.024765 637.848694,14.247783 
	C657.745667,14.519747 677.522339,17.121954 697.063782,21.438354 
	C719.983521,26.500977 741.476379,35.306801 762.729919,44.911469 
	C782.455872,53.825794 800.823547,64.966232 817.859802,78.313110 
	C825.442688,84.253853 833.132080,90.064903 840.562195,96.190636 
	C842.938232,98.149490 844.636414,100.930557 846.709839,103.413414 
	C836.479675,118.772484 826.334045,134.112885 816.074707,149.376877 
	C805.894714,164.522827 795.600281,179.591812 785.053833,195.139954 
	C783.643860,194.192261 781.996216,193.421188 780.779785,192.215195 
	C768.651855,180.191864 755.017212,170.081253 740.554382,161.141983 
	C720.247009,148.590302 698.553101,138.958603 674.884094,135.222214 
	C659.453247,132.786316 643.686829,131.028259 628.109253,131.286346 
	C600.003296,131.752029 572.646729,137.243546 546.381165,147.811996 
	C525.432922,156.240952 506.166168,167.481583 488.906952,181.884232 
	C480.045898,189.278748 472.385986,198.111572 464.165283,206.276321 
	C463.492523,206.944473 462.681030,207.472946 461.164673,208.677414 
	C454.593140,194.684128 448.249054,181.175247 441.709198,167.341522 
z"/>
<path fill="#00A05F" opacity="1.000000" stroke="none" 
	d="
M238.741211,134.993744 
	C238.958740,135.090561 238.959991,135.295410 238.959595,135.807556 
	C238.813614,135.777161 238.669266,135.439484 238.741211,134.993744 
z"/>
</svg>